<svg width="209" height="57" viewBox="0 0 209 57" fill="none" xmlns="http://www.w3.org/2000/svg">
<g clip-path="url(#clip0_319_1845)">
<path fill-rule="evenodd" clip-rule="evenodd" d="M34.3439 9.83312e-08C41.5379 0.0193237 48.4318 2.92943 53.5193 8.09441C58.6068 13.2594 61.4743 20.2593 61.495 27.5645V55.1291H34.3439C28.523 55.132 22.8576 53.2213 18.1949 49.6828H21.6371C25.4827 51.9787 29.8632 53.1879 34.3242 53.1849H59.5739V27.5645C59.5532 20.7761 56.8884 14.2717 52.1613 9.47148C47.4342 4.67128 41.0289 1.96524 34.3439 1.94417C29.8764 1.93862 25.4888 3.14788 21.6371 5.44633H18.1949C22.8587 1.90995 28.5234 -0.000500441 34.3439 9.83312e-08ZM8.66149 36.4664C7.697 33.6009 7.20734 30.5928 7.21247 27.5645C7.20577 24.5296 7.69544 21.5147 8.66149 18.6427H10.7006C8.5848 24.3828 8.5848 30.7063 10.7006 36.4464L8.66149 36.4664Z" fill="#4185E2"/>
<path fill-rule="evenodd" clip-rule="evenodd" d="M58.2819 51.8732V27.5645C58.2883 22.7168 56.8654 17.9781 54.1962 13.9589C51.5271 9.93975 47.7341 6.8241 43.3058 5.01333C38.8775 3.20257 34.0167 2.77963 29.3496 3.79899C24.6824 4.81835 20.4228 7.23332 17.1192 10.7328H46.5127L28.377 25.0677L20.2729 18.6426H13.9589L28.3835 30.0413L49.6664 13.2296V44.3962H17.1192C19.3461 46.7565 22.0198 48.6354 24.9797 49.9203C27.9395 51.2052 31.1246 51.8694 34.3435 51.8732H58.2819ZM16.9291 16.0194H13.3032C13.6638 15.3535 14.0507 14.6877 14.4703 14.0685L16.9291 16.0194Z" fill="#0B57D0"/>
<path fill-rule="evenodd" clip-rule="evenodd" d="M25.5056 8.0896C25.8534 8.0896 26.1869 8.2299 26.4328 8.47962C26.6787 8.72935 26.8169 9.06805 26.8169 9.42122C26.8169 9.77439 26.6787 10.1131 26.4328 10.3628C26.1869 10.6125 25.8534 10.7528 25.5056 10.7528H7.26494C6.91716 10.7528 6.58362 10.6125 6.33769 10.3628C6.09177 10.1131 5.95361 9.77439 5.95361 9.42122C5.95361 9.06805 6.09177 8.72935 6.33769 8.47962C6.58362 8.2299 6.91716 8.0896 7.26494 8.0896H25.5056Z" fill="#0B57D0"/>
<path fill-rule="evenodd" clip-rule="evenodd" d="M26.2793 13.3761C26.6271 13.3761 26.9606 13.5164 27.2065 13.7661C27.4525 14.0158 27.5906 14.3546 27.5906 14.7077C27.5906 15.0609 27.4525 15.3996 27.2065 15.6493C26.9606 15.899 26.6271 16.0393 26.2793 16.0393H3.21953C2.87175 16.0393 2.53821 15.899 2.29228 15.6493C2.04636 15.3996 1.9082 15.0609 1.9082 14.7077C1.9082 14.3546 2.04636 14.0158 2.29228 13.7661C2.53821 13.5164 2.87175 13.3761 3.21953 13.3761H26.2793Z" fill="#0B57D0"/>
<path fill-rule="evenodd" clip-rule="evenodd" d="M25.5056 47.0395C25.8534 47.0395 26.1869 46.8992 26.4328 46.6494C26.6787 46.3997 26.8169 46.061 26.8169 45.7078C26.8169 45.3547 26.6787 45.016 26.4328 44.7662C26.1869 44.5165 25.8534 44.3762 25.5056 44.3762H7.26494C6.91716 44.3762 6.58362 44.5165 6.33769 44.7662C6.09177 45.016 5.95361 45.3547 5.95361 45.7078C5.95361 46.061 6.09177 46.3997 6.33769 46.6494C6.58362 46.8992 6.91716 47.0395 7.26494 47.0395H25.5056Z" fill="#0B57D0"/>
<path fill-rule="evenodd" clip-rule="evenodd" d="M26.279 41.753C26.6268 41.753 26.9603 41.6127 27.2063 41.3629C27.4522 41.1132 27.5904 40.7745 27.5904 40.4213C27.5904 40.0682 27.4522 39.7295 27.2063 39.4797C26.9603 39.23 26.6268 39.0897 26.279 39.0897H20.66C20.3122 39.0897 19.9786 39.23 19.7327 39.4797C19.4868 39.7295 19.3486 40.0682 19.3486 40.4213C19.3486 40.7745 19.4868 41.1132 19.7327 41.3629C19.9786 41.6127 20.3122 41.753 20.66 41.753H26.279Z" fill="#0B57D0"/>
<path fill-rule="evenodd" clip-rule="evenodd" d="M16.8965 41.753C17.2443 41.753 17.5778 41.6127 17.8238 41.3629C18.0697 41.1132 18.2078 40.7745 18.2078 40.4213C18.2078 40.0682 18.0697 39.7295 17.8238 39.4797C17.5778 39.23 17.2443 39.0897 16.8965 39.0897H1.31133C0.963545 39.0897 0.630002 39.23 0.38408 39.4797C0.138158 39.7295 0 40.0682 0 40.4213C0 40.7745 0.138158 41.1132 0.38408 41.3629C0.630002 41.6127 0.963545 41.753 1.31133 41.753H16.8965Z" fill="#0B57D0"/>
<path fill-rule="evenodd" clip-rule="evenodd" d="M65.2715 46.6533H69.271V30.008H65.2715V46.6533ZM82.5286 30.008V40.3281L75.8408 30.008H71.8478V46.6533H75.8408V36.3798L82.5286 46.6533H86.5478V30.008H82.5286ZM98.14 41.5798C98.14 42.7716 97.3729 43.3841 96.0419 43.3841H93.1045V39.7022H96.0025C97.3139 39.7022 98.1466 40.368 98.1466 41.5731L98.14 41.5798ZM97.7466 35.0082C97.7466 36.1468 97.0188 36.746 95.714 36.746H93.0914V33.2505H95.714C97.0254 33.2505 97.7466 33.863 97.7466 35.0016V35.0082ZM102.185 42.1257C102.195 41.1925 101.886 40.2847 101.311 39.5565C100.736 38.8283 99.9308 38.3246 99.0317 38.1309C99.8515 37.9146 100.574 37.4204 101.08 36.7303C101.585 36.0401 101.843 35.1953 101.812 34.3358C101.812 31.7058 99.8447 30.0213 96.4812 30.0213H89.0984V46.6666H96.7434C100.199 46.6666 102.185 44.8889 102.185 42.1324V42.1257ZM120.328 38.284C120.328 36.5937 119.834 34.9413 118.909 33.5361C117.983 32.1309 116.668 31.036 115.13 30.39C113.592 29.7441 111.899 29.5761 110.267 29.9073C108.635 30.2385 107.136 31.0541 105.96 32.2508C104.785 33.4474 103.985 34.9714 103.663 36.6298C103.34 38.2881 103.51 40.0063 104.149 41.5669C104.789 43.1275 105.87 44.4602 107.256 45.3964C108.642 46.3327 110.271 46.8303 111.935 46.8264C113.046 46.851 114.149 46.6467 115.18 46.2259C116.21 45.8051 117.146 45.1764 117.931 44.378C118.715 43.5795 119.332 42.6278 119.744 41.5804C120.156 40.533 120.355 39.4116 120.328 38.284ZM107.588 38.284C107.588 35.3212 109.273 33.4436 111.935 33.4436C114.597 33.4436 116.256 35.3212 116.256 38.284C116.256 41.2469 114.551 43.1245 111.935 43.1245C109.319 43.1245 107.588 41.2003 107.588 38.284ZM132.274 46.6599H136.923L131.5 38.4039L136.713 30.008H132.182L129.284 35.0349L126.006 30.008H121.357L126.734 38.1908L121.488 46.6599H126.019L128.963 41.5598L132.307 46.6599H132.274ZM149.898 46.6599H152.114L146.279 30.2144H143.827L137.926 46.6533H140.168L141.48 42.978H148.587L149.898 46.6533V46.6599ZM147.984 41.2269H142.083L145.027 32.8776L147.971 41.2269H147.984ZM153.518 38.3772C153.518 43.3375 157.091 46.7997 161.648 46.7997C165.175 46.7997 167.982 45.022 169.194 41.8461H166.651C166.224 42.815 165.516 43.629 164.623 44.1797C163.729 44.7303 162.691 44.9916 161.648 44.9288C158.238 44.9288 155.688 42.412 155.688 38.3772C155.688 34.3424 158.238 31.8057 161.648 31.8057C162.695 31.7431 163.735 32.0076 164.629 32.5634C165.524 33.1193 166.229 33.94 166.651 34.915H169.194C167.982 31.7125 165.175 29.9081 161.648 29.9081C157.091 29.9081 153.518 33.4236 153.518 38.3772ZM171.155 38.3772C171.155 43.3375 174.728 46.7997 179.285 46.7997C182.813 46.7997 185.619 45.022 186.832 41.8461H184.288C183.861 42.815 183.154 43.629 182.26 44.1797C181.366 44.7303 180.329 44.9916 179.285 44.9288C175.876 44.9288 173.325 42.412 173.325 38.3772C173.325 34.3424 175.876 31.8057 179.285 31.8057C180.332 31.7431 181.373 32.0076 182.267 32.5634C183.161 33.1193 183.867 33.94 184.288 34.915H186.865C185.652 31.7125 182.845 29.9081 179.318 29.9081C174.761 29.9081 171.188 33.4236 171.188 38.3772H171.155ZM198.345 30.0946H189.586V46.6533H198.345V44.8755H191.71V39.1829H197.65V37.3985H191.71V31.8723H198.345V30.0946ZM201.171 30.0946V46.6533H209V44.8955H203.296V30.1145L201.171 30.0946Z" fill="#0B57D0"/>
<path fill-rule="evenodd" clip-rule="evenodd" d="M65.9534 52.2527V50.3085H66.9565C67.7302 50.3085 68.0581 50.6747 68.0581 51.2873C68.0581 51.8998 67.7302 52.2527 66.9565 52.2527H65.9534ZM68.7531 51.2673C68.7531 50.4084 68.1761 49.7226 66.9565 49.7226H65.2715V55.0092H65.9272V52.8187H66.9303C68.2416 52.8187 68.7268 52.0929 68.7268 51.2873L68.7531 51.2673ZM73.4345 52.9452C73.4255 52.5323 73.297 52.1312 73.065 51.792C72.8331 51.4528 72.508 51.1904 72.1302 51.0375C71.7524 50.8846 71.3387 50.848 70.9405 50.9322C70.5424 51.0164 70.1775 51.2178 69.8913 51.5112C69.605 51.8045 69.4102 52.177 69.3309 52.582C69.2517 52.9871 69.2916 53.4069 69.4457 53.7891C69.5998 54.1713 69.8612 54.499 70.1974 54.7313C70.5336 54.9637 70.9297 55.0904 71.3364 55.0957C71.6164 55.1062 71.8954 55.0575 72.1559 54.9529C72.4164 54.8482 72.6528 54.6898 72.8499 54.4877C73.0471 54.2856 73.2009 54.0442 73.3015 53.7787C73.4021 53.5132 73.4474 53.2293 73.4345 52.9452ZM69.9923 52.9452C69.9688 52.7496 69.9869 52.5511 70.0454 52.3633C70.1038 52.1754 70.2013 52.0024 70.3312 51.856C70.461 51.7096 70.6203 51.5932 70.7982 51.5146C70.9762 51.4361 71.1686 51.3971 71.3626 51.4005C71.5565 51.3983 71.7487 51.438 71.9264 51.5169C72.1041 51.5958 72.2633 51.7121 72.3935 51.8581C72.5236 52.0041 72.6218 52.1765 72.6814 52.3639C72.7411 52.5513 72.7609 52.7494 72.7395 52.9452C72.758 53.1425 72.7352 53.3416 72.6729 53.5295C72.6105 53.7174 72.5098 53.8898 72.3774 54.0355C72.2451 54.1812 72.0839 54.297 71.9046 54.3753C71.7252 54.4536 71.5316 54.4926 71.3364 54.4898C71.147 54.4858 70.9607 54.4413 70.7893 54.3594C70.618 54.2774 70.4655 54.1598 70.3419 54.0141C70.2182 53.8685 70.1261 53.698 70.0715 53.5139C70.0169 53.3297 70.0011 53.1359 70.0251 52.9452H69.9923ZM75.0934 55.0291H75.7949L76.785 51.7001L77.7685 55.0291H78.47L79.7814 50.8745H79.1257L78.2012 54.37L77.2046 50.8745H76.5161L75.4999 54.3633L74.5557 50.8745H73.8607L75.172 55.0291H75.0934ZM82.1221 51.3872C82.2921 51.3709 82.4636 51.3917 82.6251 51.4482C82.7866 51.5047 82.9344 51.5956 83.0585 51.7147C83.1826 51.8338 83.2803 51.9785 83.345 52.139C83.4096 52.2995 83.4398 52.4722 83.4334 52.6455H80.8501C80.8526 52.4748 80.8887 52.3062 80.9564 52.1499C81.0241 51.9936 81.122 51.8526 81.2442 51.7353C81.3664 51.618 81.5106 51.5267 81.6681 51.4669C81.8257 51.4072 81.9934 51.38 82.1614 51.3872H82.1221ZM84.0301 53.7441H83.3023C83.2216 53.9846 83.0644 54.191 82.8555 54.3308C82.6466 54.4707 82.3978 54.536 82.1483 54.5165C81.8005 54.5165 81.467 54.3762 81.2211 54.1264C80.9751 53.8767 80.837 53.538 80.837 53.1848H84.1153C84.1153 53.0384 84.1153 52.9185 84.1153 52.7654C84.1275 52.4998 84.0849 52.2346 83.9903 51.9867C83.8958 51.7387 83.7513 51.5136 83.5662 51.3256C83.3811 51.1376 83.1593 50.9909 82.9152 50.8949C82.671 50.7989 82.4099 50.7556 82.1483 50.768C81.6079 50.7985 81.0995 51.0381 80.7275 51.4374C80.3556 51.8367 80.1483 52.3655 80.1483 52.9152C80.1483 53.4649 80.3556 53.9936 80.7275 54.393C81.0995 54.7923 81.6079 55.0319 82.1483 55.0624C82.5643 55.0904 82.9772 54.9738 83.3192 54.7318C83.6612 54.4897 83.9119 54.1367 84.0301 53.7308V53.7441ZM85.6496 52.772C85.6496 51.8066 86.1479 51.507 86.797 51.507H86.974V50.7946C86.7075 50.7796 86.4423 50.8425 86.2099 50.9759C85.9775 51.1092 85.7876 51.3074 85.6627 51.547V50.8811H85.007V55.0358H85.6627V52.772H85.6496ZM91.308 53.0317V55.0291H91.9636V53.0317L93.6618 49.7426H92.9078L91.5965 52.4059L90.2851 49.7426H89.5311L91.2293 53.0317H91.308ZM98.2515 52.9452C98.2424 52.5326 98.1141 52.1318 97.8824 51.7927C97.6507 51.4536 97.326 51.1912 96.9486 51.0382C96.5712 50.8851 96.1578 50.8481 95.7598 50.9318C95.3619 51.0155 94.997 51.2162 94.7105 51.5089C94.424 51.8017 94.2286 52.1735 94.1487 52.5781C94.0687 52.9827 94.1077 53.4023 94.2608 53.7846C94.4139 54.1669 94.6743 54.495 95.0096 54.7281C95.345 54.9613 95.7404 55.0891 96.1468 55.0957C96.427 55.1061 96.7064 55.0574 96.9672 54.9529C97.2281 54.8483 97.4648 54.69 97.6624 54.488C97.8601 54.286 98.0145 54.0447 98.1159 53.7791C98.2172 53.5136 98.2634 53.2297 98.2515 52.9452ZM94.8027 52.9452C94.7792 52.7496 94.7973 52.5511 94.8558 52.3633C94.9142 52.1754 95.0117 52.0024 95.1416 51.856C95.2714 51.7096 95.4307 51.5932 95.6086 51.5146C95.7865 51.4361 95.979 51.3971 96.173 51.4005C96.5521 51.4363 96.9043 51.6145 97.1608 51.9002C97.4172 52.1859 97.5593 52.5586 97.5593 52.9452C97.5593 53.3317 97.4172 53.7044 97.1608 53.9901C96.9043 54.2759 96.5521 54.4541 96.173 54.4898C95.9809 54.4904 95.7908 54.4494 95.6156 54.3695C95.4403 54.2896 95.2838 54.1727 95.1566 54.0265C95.0294 53.8803 94.9344 53.7082 94.8778 53.5217C94.8213 53.3353 94.8046 53.1387 94.8289 52.9452H94.8027ZM102.736 50.8745H102.081V53.1582C102.081 54.0504 101.615 54.4898 100.907 54.4898C100.745 54.4973 100.584 54.4685 100.435 54.4056C100.286 54.3426 100.152 54.2471 100.043 54.1257C99.9339 54.0043 99.8526 53.8601 99.8048 53.7032C99.757 53.5464 99.7438 53.3808 99.7661 53.2181V50.8745H99.1104V53.3047C99.0862 53.5382 99.1123 53.7743 99.187 53.9965C99.2617 54.2187 99.3831 54.4217 99.5428 54.5915C99.7025 54.7613 99.8967 54.8937 100.112 54.9797C100.327 55.0656 100.558 55.1029 100.789 55.0891C101.045 55.1012 101.3 55.0463 101.53 54.9297C101.76 54.8132 101.956 54.6388 102.1 54.4233V55.0358H102.756V50.8745H102.736ZM104.526 52.772C104.526 51.8066 105.018 51.507 105.667 51.507H105.851V50.7946C105.584 50.7788 105.318 50.8414 105.086 50.9748C104.853 51.1082 104.664 51.3069 104.539 51.547V50.8811H103.884V55.0358H104.539V52.772H104.526ZM111.739 49.736H108.939V55.0624H111.739V54.4632H109.614V52.6389H111.516V52.0729H109.614V50.3019H111.739V49.736ZM118.636 55.0624H119.292V52.5989C119.317 52.367 119.292 52.1322 119.219 51.911C119.146 51.6898 119.026 51.4873 118.868 51.3176C118.711 51.1479 118.518 51.0151 118.305 50.9282C118.092 50.8413 117.862 50.8026 117.633 50.8146C117.328 50.8015 117.025 50.883 116.767 51.0483C116.508 51.2136 116.305 51.4548 116.184 51.74C116.056 51.4494 115.843 51.2053 115.575 51.04C115.307 50.8747 114.996 50.7961 114.682 50.8146C114.426 50.8005 114.17 50.8545 113.94 50.9712C113.71 51.088 113.514 51.2634 113.371 51.4804V50.8811H112.715V55.0358H113.371V52.7388C113.371 51.8466 113.837 51.4071 114.525 51.4071C115.214 51.4071 115.646 51.8399 115.646 52.6921V55.0425H116.302V52.7388C116.302 51.8466 116.767 51.4071 117.456 51.4071C118.144 51.4071 118.577 51.8399 118.577 52.6921V55.0425L118.636 55.0624ZM120.131 52.9718C120.109 53.2472 120.144 53.5242 120.233 53.7853C120.322 54.0464 120.464 54.2859 120.648 54.4887C120.833 54.6914 121.058 54.853 121.307 54.9632C121.557 55.0734 121.826 55.1299 122.098 55.129C122.403 55.1418 122.707 55.0705 122.975 54.9229C123.244 54.7752 123.469 54.5566 123.626 54.2901V55.0624H124.314V50.8745H123.626V51.6335C123.469 51.3688 123.245 51.1517 122.978 51.0053C122.71 50.8588 122.408 50.7883 122.105 50.8013C121.834 50.8006 121.567 50.8565 121.319 50.9655C121.071 51.0745 120.847 51.2343 120.663 51.4348C120.478 51.6354 120.336 51.8724 120.246 52.1311C120.156 52.3898 120.119 52.6647 120.138 52.9385L120.131 52.9718ZM123.593 52.9718C123.568 53.2438 123.465 53.5025 123.298 53.7164C123.13 53.9304 122.905 54.0904 122.65 54.1772C122.395 54.2639 122.121 54.2735 121.86 54.2049C121.6 54.1364 121.365 53.9925 121.183 53.7908C121.002 53.5891 120.882 53.3382 120.838 53.0687C120.794 52.7991 120.828 52.5224 120.936 52.2721C121.044 52.0219 121.221 51.8088 121.446 51.6588C121.671 51.5088 121.934 51.4283 122.203 51.4271C122.397 51.4272 122.588 51.4684 122.766 51.5478C122.943 51.6273 123.102 51.7433 123.233 51.8886C123.364 52.0339 123.463 52.2053 123.525 52.3917C123.587 52.5782 123.61 52.7758 123.593 52.9718ZM125.396 55.0558H126.052V50.8745H125.396V55.0291V55.0558ZM125.744 50.222C125.803 50.222 125.862 50.2099 125.917 50.1863C125.972 50.1627 126.022 50.1282 126.064 50.0847C126.105 50.0413 126.138 49.9898 126.159 49.9333C126.181 49.8768 126.191 49.8165 126.189 49.7559C126.188 49.6651 126.16 49.5767 126.109 49.5019C126.059 49.4271 125.987 49.3692 125.904 49.3357C125.821 49.3021 125.73 49.2944 125.642 49.3134C125.555 49.3324 125.475 49.3774 125.413 49.4425C125.35 49.5077 125.308 49.5902 125.292 49.6795C125.276 49.7689 125.286 49.8611 125.322 49.9445C125.357 50.028 125.416 50.0989 125.491 50.1483C125.566 50.1976 125.654 50.2233 125.744 50.222ZM127.199 55.0291H127.855V49.4164H127.199V55.0291ZM128.406 56.1144H128.864L129.697 54.0704H128.95L128.406 56.1144ZM135.559 49.736H132.759V55.0624H135.559V54.4632H133.434V52.6389H135.336V52.0729H133.434V50.3019H135.559V49.736ZM142.456 55.0624H143.112V52.5989C143.137 52.367 143.112 52.1322 143.039 51.911C142.966 51.6898 142.846 51.4873 142.689 51.3176C142.531 51.1479 142.339 51.0151 142.125 50.9282C141.912 50.8413 141.683 50.8026 141.453 50.8146C141.148 50.8024 140.846 50.8843 140.588 51.0495C140.329 51.2147 140.126 51.4554 140.004 51.74C139.877 51.4488 139.664 51.2042 139.396 51.0388C139.128 50.8734 138.816 50.7952 138.503 50.8146C138.246 50.8005 137.99 50.8545 137.76 50.9712C137.53 51.088 137.334 51.2634 137.191 51.4804V50.8811H136.536V55.0358H137.191V52.7388C137.191 51.8466 137.664 51.4071 138.352 51.4071C139.04 51.4071 139.467 51.8399 139.467 52.6921V55.0425H140.122V52.7388C140.122 51.8466 140.594 51.4071 141.283 51.4071C141.971 51.4071 142.397 51.8399 142.397 52.6921V55.0425L142.456 55.0624ZM144.882 51.6735V50.8745H144.227V56.9999H144.882V54.2635C145.046 54.5245 145.273 54.7383 145.542 54.8841C145.811 55.0299 146.112 55.1028 146.417 55.0957C146.689 55.0966 146.958 55.0402 147.208 54.9299C147.457 54.8197 147.681 54.6581 147.866 54.4554C148.051 54.2526 148.193 54.0131 148.282 53.752C148.371 53.4909 148.405 53.2139 148.384 52.9385C148.403 52.6647 148.366 52.3898 148.275 52.1311C148.185 51.8724 148.043 51.6354 147.859 51.4348C147.674 51.2343 147.451 51.0745 147.203 50.9655C146.955 50.8565 146.687 50.8006 146.417 50.8013C146.111 50.7922 145.808 50.8649 145.539 51.0122C145.27 51.1594 145.043 51.376 144.882 51.6402V51.6735ZM147.662 53.0051C147.64 53.2795 147.538 53.5413 147.371 53.7583C147.204 53.9754 146.979 54.1384 146.722 54.2274C146.465 54.3164 146.189 54.3275 145.926 54.2594C145.663 54.1914 145.425 54.0471 145.242 53.8441C145.059 53.6412 144.937 53.3884 144.893 53.1167C144.849 52.8449 144.883 52.5659 144.993 52.3138C145.102 52.0617 145.281 51.8474 145.508 51.697C145.736 51.5467 146.001 51.4668 146.272 51.4671C146.465 51.4683 146.656 51.5099 146.832 51.5893C147.009 51.6686 147.167 51.7841 147.298 51.9285C147.428 52.0728 147.528 52.2429 147.59 52.4281C147.653 52.6134 147.678 52.8098 147.662 53.0051ZM153.098 53.0051C153.089 52.5922 152.96 52.1912 152.728 51.8519C152.496 51.5127 152.171 51.2503 151.794 51.0974C151.416 50.9445 151.002 50.9079 150.604 50.9921C150.206 51.0764 149.841 51.2777 149.555 51.5711C149.268 51.8645 149.074 52.2369 148.994 52.642C148.915 53.047 148.955 53.4668 149.109 53.849C149.263 54.2312 149.525 54.5589 149.861 54.7912C150.197 55.0236 150.593 55.1503 151 55.1556C151.28 55.1661 151.559 55.1174 151.819 55.0128C152.08 54.9081 152.316 54.7497 152.513 54.5476C152.71 54.3455 152.864 54.1041 152.965 53.8386C153.065 53.5731 153.111 53.2893 153.098 53.0051ZM149.656 53.0051C149.632 52.8095 149.65 52.6111 149.709 52.4232C149.767 52.2353 149.865 52.0623 149.995 51.916C150.124 51.7696 150.284 51.6532 150.462 51.5746C150.64 51.496 150.832 51.4571 151.026 51.4604C151.22 51.4583 151.412 51.4979 151.59 51.5768C151.768 51.6557 151.927 51.772 152.057 51.918C152.187 52.064 152.285 52.2364 152.345 52.4238C152.404 52.6112 152.424 52.8093 152.403 53.0051C152.421 53.2025 152.399 53.4015 152.336 53.5894C152.274 53.7773 152.173 53.9497 152.041 54.0954C151.908 54.2411 151.747 54.3569 151.568 54.4352C151.389 54.5135 151.195 54.5525 151 54.5498C150.808 54.5504 150.618 54.5094 150.442 54.4295C150.267 54.3495 150.111 54.2326 149.983 54.0864C149.856 53.9402 149.761 53.7681 149.705 53.5816C149.648 53.3952 149.631 53.1986 149.656 53.0051ZM154.737 55.0291H155.439L156.422 51.7001L157.412 55.0291H158.114L159.392 50.8745H158.737L157.812 54.37L156.816 50.8745H156.121L155.104 54.3633L154.167 50.8745H153.426L154.737 55.0291ZM161.766 51.3872C161.936 51.3709 162.107 51.3917 162.269 51.4482C162.43 51.5047 162.578 51.5956 162.702 51.7147C162.826 51.8338 162.924 51.9785 162.989 52.139C163.053 52.2995 163.083 52.4722 163.077 52.6455H160.494C160.496 52.4748 160.532 52.3062 160.6 52.1499C160.668 51.9936 160.766 51.8526 160.888 51.7353C161.01 51.618 161.154 51.5267 161.312 51.4669C161.469 51.4072 161.637 51.38 161.805 51.3872H161.766ZM163.674 53.7441H162.946C162.865 53.9846 162.708 54.191 162.499 54.3308C162.29 54.4707 162.041 54.536 161.792 54.5165C161.444 54.5165 161.111 54.3762 160.865 54.1264C160.619 53.8767 160.481 53.538 160.481 53.1848H163.759C163.769 53.0452 163.769 52.905 163.759 52.7654C163.771 52.4998 163.729 52.2346 163.634 51.9867C163.539 51.7387 163.395 51.5136 163.21 51.3256C163.025 51.1376 162.803 50.9909 162.559 50.8949C162.315 50.7989 162.054 50.7556 161.792 50.768C161.252 50.7985 160.743 51.0381 160.371 51.4374C159.999 51.8367 159.792 52.3655 159.792 52.9152C159.792 53.4649 159.999 53.9936 160.371 54.393C160.743 54.7923 161.252 55.0319 161.792 55.0624C162.208 55.0892 162.62 54.9721 162.962 54.7302C163.304 54.4884 163.555 54.1361 163.674 53.7308V53.7441ZM165.293 52.772C165.293 51.8066 165.785 51.507 166.441 51.507H166.618V50.7946C166.351 50.7796 166.086 50.8425 165.854 50.9759C165.621 51.1092 165.431 51.3074 165.306 51.547V50.8811H164.651V55.0358H165.306V52.772H165.293ZM170.952 53.0317V55.0291H171.607V53.0317L173.306 49.7426H172.552L171.24 52.4059L169.929 49.7426H169.175L170.873 53.0317H170.952ZM177.889 52.9452C177.88 52.5323 177.751 52.1312 177.519 51.792C177.287 51.4528 176.962 51.1904 176.584 51.0375C176.207 50.8846 175.793 50.848 175.395 50.9322C174.997 51.0164 174.632 51.2178 174.345 51.5112C174.059 51.8045 173.864 52.177 173.785 52.582C173.706 52.9871 173.746 53.4069 173.9 53.7891C174.054 54.1713 174.315 54.499 174.652 54.7313C174.988 54.9637 175.384 55.0904 175.79 55.0957C176.07 55.1062 176.35 55.0575 176.61 54.9529C176.871 54.8482 177.107 54.6898 177.304 54.4877C177.501 54.2856 177.655 54.0442 177.756 53.7787C177.856 53.5132 177.902 53.2293 177.889 52.9452ZM174.446 52.9452C174.423 52.7496 174.441 52.5511 174.499 52.3633C174.558 52.1754 174.655 52.0024 174.785 51.856C174.915 51.7096 175.074 51.5932 175.252 51.5146C175.43 51.4361 175.623 51.3971 175.817 51.4005C176.196 51.4363 176.548 51.6145 176.804 51.9002C177.061 52.1859 177.203 52.5586 177.203 52.9452C177.203 53.3317 177.061 53.7044 176.804 53.9901C176.548 54.2759 176.196 54.4541 175.817 54.4898C175.625 54.4904 175.435 54.4494 175.259 54.3695C175.084 54.2896 174.928 54.1727 174.8 54.0265C174.673 53.8803 174.578 53.7082 174.522 53.5217C174.465 53.3353 174.448 53.1387 174.473 52.9452H174.446ZM182.38 50.8745H181.724V53.1582C181.724 54.0504 181.252 54.4898 180.551 54.4898C180.389 54.4973 180.228 54.4685 180.079 54.4056C179.929 54.3426 179.795 54.2471 179.686 54.1257C179.578 54.0043 179.496 53.8601 179.449 53.7032C179.401 53.5464 179.387 53.3808 179.41 53.2181V50.8745H178.754V53.3047C178.731 53.5386 178.758 53.7747 178.834 53.9969C178.909 54.2191 179.031 54.422 179.191 54.5917C179.351 54.7613 179.546 54.8936 179.761 54.9795C179.977 55.0654 180.208 55.1028 180.439 55.0891C180.696 55.1012 180.951 55.0463 181.18 54.9297C181.41 54.8132 181.606 54.6388 181.751 54.4233V55.0358H182.406V50.8745H182.38ZM184.17 52.772C184.17 51.8066 184.662 51.507 185.311 51.507H185.494V50.7946C185.228 50.7788 184.962 50.8414 184.73 50.9748C184.497 51.1082 184.307 51.3069 184.183 51.547V50.8811H183.527V55.0358H184.183V52.772H184.17ZM189.612 55.0358H190.366L191.618 50.7813L192.831 55.0358H193.592L195.1 49.7493H194.372L193.225 54.2169L192.031 49.7493H191.271L190.018 54.2302L188.878 49.7493H188.176L189.632 55.0757L189.612 55.0358ZM199.696 52.9452C199.712 52.6593 199.67 52.3733 199.573 52.1044C199.477 51.8356 199.327 51.5896 199.133 51.3816C198.939 51.1735 198.706 51.0078 198.447 50.8946C198.188 50.7813 197.909 50.7229 197.627 50.7229C197.346 50.7229 197.067 50.7813 196.808 50.8946C196.549 51.0078 196.315 51.1735 196.122 51.3816C195.928 51.5896 195.778 51.8356 195.682 52.1044C195.585 52.3733 195.543 52.6593 195.559 52.9452C195.537 53.2263 195.575 53.5089 195.668 53.7744C195.762 54.0398 195.91 54.2821 196.103 54.4853C196.296 54.6884 196.528 54.8479 196.786 54.9531C197.044 55.0583 197.32 55.1069 197.598 55.0957C197.878 55.1051 198.156 55.0558 198.416 54.9508C198.676 54.8458 198.912 54.6874 199.109 54.4855C199.306 54.2836 199.46 54.0426 199.561 53.7775C199.662 53.5125 199.708 53.2291 199.696 52.9452ZM196.254 52.9452C196.23 52.7501 196.248 52.5523 196.306 52.3649C196.365 52.1775 196.461 52.0049 196.591 51.8586C196.72 51.7123 196.878 51.5957 197.055 51.5167C197.232 51.4377 197.424 51.3981 197.618 51.4005C197.997 51.4363 198.349 51.6145 198.605 51.9002C198.862 52.1859 199.004 52.5586 199.004 52.9452C199.004 53.3317 198.862 53.7044 198.605 53.9901C198.349 54.2759 197.997 54.4541 197.618 54.4898C197.425 54.4915 197.235 54.4513 197.059 54.3717C196.883 54.2922 196.726 54.1752 196.599 54.0288C196.471 53.8823 196.376 53.7098 196.32 53.5228C196.264 53.3359 196.248 53.1389 196.273 52.9452H196.254ZM201.23 52.772C201.23 51.8066 201.722 51.507 202.371 51.507H202.555V50.7946C202.288 50.7788 202.023 50.8414 201.79 50.9748C201.557 51.1082 201.368 51.3069 201.243 51.547V50.8811H200.588V55.0358H201.243V52.772H201.23ZM203.296 55.0291H203.951V49.4164H203.296V55.0291ZM204.843 52.9385C204.821 53.2139 204.856 53.4909 204.945 53.752C205.034 54.0131 205.176 54.2526 205.36 54.4554C205.545 54.6581 205.77 54.8197 206.019 54.9299C206.269 55.0402 206.538 55.0966 206.81 55.0957C207.116 55.1085 207.42 55.0366 207.689 54.8877C207.958 54.7387 208.182 54.5184 208.338 54.2501V55.0291H208.993V49.4164H208.338V51.6135C208.17 51.3607 207.944 51.1541 207.678 51.0123C207.413 50.8705 207.117 50.798 206.817 50.8013C206.546 50.8006 206.279 50.8565 206.031 50.9655C205.783 51.0745 205.559 51.2343 205.375 51.4348C205.19 51.6354 205.048 51.8724 204.958 52.1311C204.868 52.3898 204.831 52.6647 204.85 52.9385H204.843ZM208.312 52.9385C208.286 53.2105 208.184 53.4692 208.016 53.6831C207.849 53.8971 207.624 54.0572 207.369 54.1439C207.114 54.2306 206.839 54.2402 206.579 54.1716C206.318 54.1031 206.083 53.9592 205.902 53.7575C205.72 53.5558 205.6 53.3049 205.556 53.0354C205.512 52.7658 205.547 52.4891 205.655 52.2388C205.763 51.9886 205.94 51.7755 206.165 51.6255C206.39 51.4755 206.652 51.395 206.921 51.3938C207.116 51.3939 207.308 51.4351 207.486 51.515C207.664 51.5949 207.823 51.7115 207.954 51.8576C208.085 52.0036 208.184 52.1758 208.246 52.3631C208.307 52.5503 208.33 52.7486 208.312 52.9452V52.9385Z" fill="#0B57D0"/>
</g>
<defs>
<clipPath id="clip0_319_1845">
<rect width="209" height="57" fill="white"/>
</clipPath>
</defs>
</svg>
